# xmcd
#
# Track frame offsets:
#	150
#	9515
#	18795
#	32710
#	47510
#	67812
#	79555
#	99385
#	110475
#	121190
#	132775
#	147735
#	159170
#	171827
#	187467
#	199385
#	212610
#	221382
#	232740
#	250185
#	262210
#	274600
#	291202
#	308505
#	319807
#
# Disc length: 4466 seconds
#
# Revision: 0
# Processed by: cddbd v1.5.2PL0 Copyright (c) Steve Scherf et al.
# Submitted via: EasyCDDAExtractor 2010.6.0.0
#
DISCID=5c117019
DTITLE=Various Artist - Country Classics Disc 3
DYEAR=1999
DGENRE=Country
TTITLE0=bellamy brothers - let your love flow
TTITLE1=faron young - hello walls
TTITLE2=barbara fairchild - teddy bear song
TTITLE3=kenny rogers - for the good times
TTITLE4=charlie rich - big bossman
TTITLE5=dolly parton - making beleive
TTITLE6=merle haggard - the bottle let me down
TTITLE7=patsy cline - i cant forget you
TTITLE8=jerry wallace - primrose lane
TTITLE9=jeannie c riley - total woman
TTITLE10=tina turner - good hearted woman
TTITLE11=waylon jennings - sally was a good old girl
TTITLE12=dottie west - here comes my baby
TTITLE13=george jones - he stopped loving her today
TTITLE14=ricky scaggs - are you proud of america
TTITLE15=tanya tucker - san antonio rose
TTITLE16=jim reeves - if you were mine
TTITLE17=kathy mattea - street talk
TTITLE18=ferlin husky - convoy
TTITLE19=jerry wallace - there she goes
TTITLE20=willie nelson - shelter of your arms
TTITLE21=bobby bare - marie laveau
TTITLE22=freddie fender - whiskey river
TTITLE23=ed bruce/lynn anderson - down the hall
TTITLE24=anne murray - there goes my everything
EXTD=
EXTT0=
EXTT1=
EXTT2=
EXTT3=
EXTT4=
EXTT5=
EXTT6=
EXTT7=
EXTT8=
EXTT9=
EXTT10=
EXTT11=
EXTT12=
EXTT13=
EXTT14=
EXTT15=
EXTT16=
EXTT17=
EXTT18=
EXTT19=
EXTT20=
EXTT21=
EXTT22=
EXTT23=
EXTT24=
PLAYORDER=
